<svg width="24" height="24" viewBox="0 0 24 24" fill="none" xmlns="http://www.w3.org/2000/svg">
<g id="mingcute:menu-fill" clip-path="url(#clip0_47_179)">
<g id="Group">
<path id="Vector" d="M21.2632 17.5C21.7092 17.5002 22.1381 17.6486 22.4609 17.9144C22.7837 18.1802 22.9757 18.5431 22.9971 18.9279C23.0186 19.3127 22.8678 19.6898 22.576 19.9812C22.2842 20.2726 21.8739 20.4558 21.4299 20.493L21.2632 20.5H2.73684C2.2908 20.4998 1.86194 20.3514 1.53913 20.0856C1.21632 19.8198 1.0243 19.4569 1.00287 19.0721C0.981431 18.6873 1.13222 18.3102 1.42399 18.0188C1.71576 17.7274 2.12615 17.5442 2.57011 17.507L2.73684 17.5H21.2632ZM21.2632 10.5C21.7238 10.5 22.1656 10.658 22.4913 10.9393C22.817 11.2206 23 11.6022 23 12C23 12.3978 22.817 12.7794 22.4913 13.0607C22.1656 13.342 21.7238 13.5 21.2632 13.5H2.73684C2.2762 13.5 1.83443 13.342 1.50871 13.0607C1.18299 12.7794 1 12.3978 1 12C1 11.6022 1.18299 11.2206 1.50871 10.9393C1.83443 10.658 2.2762 10.5 2.73684 10.5H21.2632ZM21.2632 3.5C21.7238 3.5 22.1656 3.65804 22.4913 3.93934C22.817 4.22064 23 4.60218 23 5C23 5.39782 22.817 5.77936 22.4913 6.06066C22.1656 6.34196 21.7238 6.5 21.2632 6.5H2.73684C2.2762 6.5 1.83443 6.34196 1.50871 6.06066C1.18299 5.77936 1 5.39782 1 5C1 4.60218 1.18299 4.22064 1.50871 3.93934C1.83443 3.65804 2.2762 3.5 2.73684 3.5H21.2632Z" fill="#27282A"/>
</g>
</g>
<defs>
<clipPath id="clip0_47_179">
<rect width="24" height="24" fill="white"/>
</clipPath>
</defs>
</svg>
